<svg width="40" height="40" viewBox="0 0 40 40" fill="none" xmlns="http://www.w3.org/2000/svg">
<g clip-path="url(#clip0_7315_1712)">
<path d="M35 0H5C2.23858 0 0 2.23858 0 5V35C0 37.7614 2.23858 40 5 40H35C37.7614 40 40 37.7614 40 35V5C40 2.23858 37.7614 0 35 0Z" fill="#E1141E"/>
<path d="M22.3854 35V21.3153H27.1028L27.8091 15.9826H22.3855V12.578C22.3855 11.0339 22.8261 9.98154 25.0995 9.98154L28 9.9807V5.2106C27.4986 5.14506 25.7772 5 23.7737 5C19.5921 5 16.7296 7.48594 16.7296 12.0499V15.9826H12V21.3153H16.7295V35L22.3854 35Z" fill="white"/>
</g>
<defs>
<clipPath id="clip0_7315_1712">
<rect width="40" height="40" fill="white"/>
</clipPath>
</defs>
</svg>
