<svg width="41" height="40" viewBox="0 0 41 40" fill="none" xmlns="http://www.w3.org/2000/svg">
<g clip-path="url(#clip0_7315_1716)">
<path d="M36.6458 0H4.35417C2.22557 0 0.5 1.72557 0.5 3.85417V36.1458C0.5 38.2744 2.22557 40 4.35417 40H36.6458C38.7744 40 40.5 38.2744 40.5 36.1458V3.85417C40.5 1.72557 38.7744 0 36.6458 0Z" fill="#E1141E"/>
<path d="M15.2913 6.14587H25.708C27.9997 6.14587 30.083 7.08337 31.5413 8.64587C32.9997 10.1042 33.9372 12.1875 33.9372 14.4792V25.5209C33.9372 27.8125 32.9997 29.7917 31.5413 31.3542C30.083 32.8125 27.9997 33.75 25.708 33.75H15.2913C12.9997 33.75 10.9163 32.8125 9.45801 31.3542C7.89551 29.7917 6.95801 27.8125 6.95801 25.5209V14.4792C6.95801 12.1875 7.89551 10.1042 9.45801 8.64587C10.9163 7.08337 12.9997 6.14587 15.2913 6.14587ZM25.708 8.54171H15.2913C13.6247 8.54171 12.1663 9.16671 11.0205 10.2084C9.97884 11.3542 9.24967 12.8125 9.24967 14.4792V25.5209C9.24967 27.0834 9.97884 28.6459 11.0205 29.6875C12.1663 30.8334 13.6247 31.4584 15.2913 31.4584H25.708C27.3747 31.4584 28.833 30.8334 29.8747 29.6875C31.0205 28.6459 31.6455 27.0834 31.6455 25.5209V14.4792C31.6455 12.8125 31.0205 11.3542 29.8747 10.2084C28.833 9.16671 27.3747 8.54171 25.708 8.54171Z" fill="white"/>
<path d="M20.4993 12.8125C22.4785 12.8125 24.2493 13.5417 25.4993 14.8958C26.7493 16.1458 27.5827 17.9167 27.5827 19.8958C27.5827 21.875 26.7493 23.5417 25.4993 24.8958C24.2493 26.1458 22.4785 26.9792 20.4993 26.9792C18.5202 26.9792 16.7493 26.1458 15.4993 24.8958C14.1452 23.5417 13.416 21.875 13.416 19.8958C13.416 17.9167 14.1452 16.1458 15.4993 14.8958C16.7493 13.5417 18.5202 12.8125 20.4993 12.8125ZM23.8327 16.4583C22.9993 15.625 21.7493 15.1042 20.4993 15.1042C19.1452 15.1042 17.9993 15.625 17.0618 16.4583C16.2285 17.3958 15.7077 18.5417 15.7077 19.8958C15.7077 21.1458 16.2285 22.3958 17.0618 23.2292C17.9993 24.0625 19.1452 24.5833 20.4993 24.5833C21.7493 24.5833 22.9993 24.0625 23.8327 23.2292C24.666 22.3958 25.291 21.1458 25.291 19.8958C25.291 18.5417 24.666 17.3958 23.8327 16.4583Z" fill="white"/>
<path d="M28.1042 14.0626C29.0246 14.0626 29.7708 13.3164 29.7708 12.3959C29.7708 11.4754 29.0246 10.7292 28.1042 10.7292C27.1837 10.7292 26.4375 11.4754 26.4375 12.3959C26.4375 13.3164 27.1837 14.0626 28.1042 14.0626Z" fill="white"/>
</g>
<defs>
<clipPath id="clip0_7315_1716">
<rect width="40" height="40" fill="white" transform="translate(0.5)"/>
</clipPath>
</defs>
</svg>
