<svg width="40" height="40" viewBox="0 0 40 40" fill="none" xmlns="http://www.w3.org/2000/svg">
<g clip-path="url(#clip0_7315_1724)">
<path fill-rule="evenodd" clip-rule="evenodd" d="M40 5C40 2.24039 37.7596 0 35 0H5C2.24039 0 0 2.24039 0 5V35C0 37.7596 2.24039 40 5 40H35C37.7596 40 40 37.7596 40 35V5Z" fill="#E1141E"/>
<path d="M12.3568 14.501H6.35352V32.5585H12.3568V14.501Z" fill="white"/>
<path d="M9.39588 5.7937C7.34198 5.7937 6 7.14402 6 8.91384C6 10.6465 7.30117 12.0341 9.31643 12.0341H9.35521C11.4484 12.0341 12.7514 10.6465 12.7514 8.91384C12.7125 7.14402 11.4486 5.7937 9.39588 5.7937Z" fill="white"/>
<path d="M27.0898 14.0762C23.9055 14.0762 22.4791 15.8274 21.6804 17.0574V14.5008H15.6787C15.7583 16.1946 15.6787 32.5583 15.6787 32.5583H21.6804V22.4737C21.6804 21.9339 21.7191 21.3943 21.8783 21.0085C22.3114 19.9305 23.2996 18.8138 24.9578 18.8138C27.1287 18.8138 27.9984 20.4703 27.9984 22.8968V32.5583H34.0003V22.203C34.0003 16.6564 31.0389 14.0762 27.0898 14.0762Z" fill="white"/>
</g>
<defs>
<clipPath id="clip0_7315_1724">
<rect width="40" height="40" fill="white"/>
</clipPath>
</defs>
</svg>
