<svg width="40" height="40" viewBox="0 0 40 40" fill="none" xmlns="http://www.w3.org/2000/svg">
<g clip-path="url(#clip0_7458_6589)">
<path d="M35 40H5C2.24 40 0 37.76 0 35V5C0 2.24 2.24 0 5 0H35C37.76 0 40 2.24 40 5V35C40 37.76 37.76 40 35 40Z" fill="#E1141E"/>
<path d="M22.2856 18.1635L31.2216 8H29.1048L21.3424 16.823L15.1472 8H8L17.3704 21.3433L8 32H10.1168L18.3088 22.6806L24.8528 32H32M10.8808 9.5619H14.1328L29.1032 30.5148H25.8504" fill="white"/>
</g>
<defs>
<clipPath id="clip0_7458_6589">
<rect width="40" height="40" fill="white"/>
</clipPath>
</defs>
</svg>
