<svg width="40" height="40" viewBox="0 0 40 40" fill="none" xmlns="http://www.w3.org/2000/svg">
<g clip-path="url(#clip0_7315_1731)">
<path d="M40 31.0234C40 35.9844 35.9766 40 31.0234 40H8.97656C4.02344 40 0 35.9766 0 31.0234V8.97656C0 4.02344 4.02344 0 8.97656 0H31.0234C35.9766 0 40 4.02344 40 8.97656V31.0234Z" fill="#E1141E"/>
<path fill-rule="evenodd" clip-rule="evenodd" d="M11.1014 27.3906C10.2576 27.1094 9.6873 26.5547 9.38261 25.7188C8.64042 23.6719 8.42167 15.1094 9.85136 13.4219C10.3435 12.8438 10.9764 12.5078 11.7264 12.4219C15.5857 12.0078 27.531 12.0625 28.906 12.5625C29.7107 12.8516 30.281 13.3828 30.5935 14.1875C31.406 16.3047 31.4373 24.0078 30.4842 26.0469C30.2264 26.6016 29.8045 26.9922 29.2732 27.2656C27.8357 28.0234 12.9998 28.0156 11.1014 27.3906ZM17.242 23.375C19.5623 22.1719 21.867 20.9766 24.2029 19.7656C21.867 18.5469 19.5623 17.3438 17.242 16.1328C17.242 18.5547 17.242 20.9531 17.242 23.375Z" fill="white"/>
</g>
<defs>
<clipPath id="clip0_7315_1731">
<rect width="40" height="40" fill="white"/>
</clipPath>
</defs>
</svg>
